<svg id="Layer_1" xmlns:rdf="http://www.w3.org/1999/02/22-rdf-syntax-ns#" xmlns="http://www.w3.org/2000/svg" enable-background="new 0 0 1024 768" xml:space="preserve" viewBox="0 0 89.256164 111.6411" height="100%" width="100%" version="1.1" y="0px" x="0px" xmlns:cc="http://creativecommons.org/ns#" xmlns:dc="http://purl.org/dc/elements/1.1/"><g id="g3" transform="translate(-608.33189,-263.3589)"><path id="path5" fill="#1c3664" d="M668.4,375h-36.4s-2.3-10.7,8.8-9.7c2.4,0.2,2.4-1.2,2.4-1.2l0.1-12.7,14,0.7,0.1,12.2s0.1,1.4,2.1,1.1c11.9-1.5,8.9,9.6,8.9,9.6z"/><path id="path7" fill="#ff6600" d="m614.9,298.6-4.1,6.2c-1.4,2.1,0.2,5,2.7,4.8l74.1-4c0.9-0.1,1.8-0.5,2.4-1.3l7-9.9c0.8-1.1,0.8-2.7-0.1-3.8l-7.7-9.5c-0.6-0.8-1.6-1.2-2.6-1.2l-74.7,4c-2.6,0.1-3.9,3.2-2.2,5.1l4.9,5.7c1,1.2,1,2.7,0.3,3.9z"/><path id="path9" fill="#1c3664" d="m658,279.2-16,0.7v-10.8c3-8.9,16-6.3,16,0v10.1z"/><path id="path11" fill="#ff6600" d="m691.1,336.7,5.7-6.9c1.3-1.6,0.3-4.1-1.9-4.2l-75.5-3.5c-0.8,0-1.5,0.3-2,0.9l-8.4,9.6c-0.8,0.9-0.9,2.1-0.2,3.1l7,10.8c0.5,0.7,1.2,1.1,2,1.2l76.1,3.6c2.1,0.1,3.4-2.3,2.2-4l-5.1-7.4c-0.7-1.1-0.7-2.4,0.1-3.2z"/><polygon id="polygon13" points="658,309.2,658,321.5,642,320.8,642,309.9" fill="#1c3664"/></g></svg>
