<?xml version="1.0" encoding="UTF-8" standalone="no"?>
<!-- Generator: Adobe Illustrator 17.1.0, SVG Export Plug-In . SVG Version: 6.00 Build 0)  -->
<svg id="Layer_1" xmlns:rdf="http://www.w3.org/1999/02/22-rdf-syntax-ns#" xmlns="http://www.w3.org/2000/svg" version="1.1" xml:space="preserve" viewBox="0 0 114.8 100" height="100%" width="100%" enable-background="new 0 0 1024 768" y="0px" x="0px" xmlns:cc="http://creativecommons.org/ns#" xmlns:dc="http://purl.org/dc/elements/1.1/"><metadata id="metadata61"><rdf:RDF><cc:Work rdf:about=""><dc:format>image/svg+xml</dc:format><dc:type rdf:resource="http://purl.org/dc/dcmitype/StillImage"/><dc:title/></cc:Work></rdf:RDF></metadata><g id="g3" transform="matrix(0.81037277,0,0,0.81037277,-457.34879,-195.70502)"><path id="path5" fill="#1c3664" d="m666.9,309.9c-0.6-3.4-4.4-2.9-7.3-8.4-1.9-3.6,1.8-8.8-1.3-13.1-2.8-3.8-6.3,0.3-12.2-2-5.2-2.1-4.7-8.3-10.8-8.3h-0.1c-6.1,0-5.5,6.1-10.8,8.3-5.8,2.4-9.4-1.5-12.2,2.2-3.1,4.3,0.6,9.4-1.3,13-3,5.6-6.8,5-7.3,8.4-0.8,4.8,4.7,5.8,6.1,10.1,0.4,1.1,0.7,3.7,0.2,4.8-2.7,6.5,3.4,7.1,3.4,7.1s5.1,0.1,4.9,6.3c1.8,5.2,7.7,2.2,7.3-1.1-1.5-6.8-12.7-10.4-12.2-23.9-0.9-9.6,7.6-21.5,21.8-22.1,14.2,0.6,22.7,12.6,21.8,22.1,0.5,13.5-10.7,17.1-12.2,23.9-0.4,3.4,5.5,6.3,7.3,1.1-0.2-6.2,4.9-6.3,4.9-6.3s6.2-0.6,3.4-7.1c-0.5-1.1-0.2-3.7,0.2-4.8,1.7-4.4,7.2-5.4,6.4-10.2z"/><circle id="circle7" d="m 611.09998,283.10001 c 0,2.48528 -2.01472,4.5 -4.5,4.5 -2.48529,0 -4.5,-2.01472 -4.5,-4.5 0,-2.48529 2.01471,-4.5 4.5,-4.5 2.48528,0 4.5,2.01471 4.5,4.5 z" cx="606.6" cy="283.1" r="4.5" fill="#ff6600"/><circle id="circle9" d="m 641.29999,267.10001 c 0,3.3137 -2.68629,6 -6,6 -3.31371,0 -6,-2.6863 -6,-6 0,-3.31371 2.68629,-6 6,-6 3.31371,0 6,2.68629 6,6 z" cx="635.3" cy="267.1" r="6" fill="#ff6600"/><circle id="circle11" d="m 668.2,333.5 c 0,1.76731 -1.43269,3.2 -3.2,3.2 -1.76731,0 -3.2,-1.43269 -3.2,-3.2 0,-1.76731 1.43269,-3.2 3.2,-3.2 1.76731,0 3.2,1.43269 3.2,3.2 z" cx="665" cy="333.5" r="3.2" fill="#ff6600"/><circle id="circle13" d="m 668.40002,283.10001 c 0,2.48528 -2.01471,4.5 -4.5,4.5 -2.48528,0 -4.5,-2.01472 -4.5,-4.5 0,-2.48529 2.01472,-4.5 4.5,-4.5 2.48529,0 4.5,2.01471 4.5,4.5 z" cx="663.9" cy="283.1" r="4.5" fill="#ff6600"/><circle id="circle15" d="m 677.4,310 c 0,2.15391 -1.74609,3.9 -3.9,3.9 -2.15391,0 -3.9,-1.74609 -3.9,-3.9 0,-2.15391 1.74609,-3.9 3.9,-3.9 2.15391,0 3.9,1.74609 3.9,3.9 z" cx="673.5" cy="310" r="3.9" fill="#ff6600"/><circle id="circle17" d="m 608.7,333.5 c 0,1.76731 -1.43269,3.2 -3.2,3.2 -1.76731,0 -3.2,-1.43269 -3.2,-3.2 0,-1.76731 1.43269,-3.2 3.2,-3.2 1.76731,0 3.2,1.43269 3.2,3.2 z" cx="605.5" cy="333.5" r="3.2" fill="#ff6600"/><circle id="circle19" d="m 600.9,310 c 0,2.15391 -1.74609,3.9 -3.9,3.9 -2.15391,0 -3.9,-1.74609 -3.9,-3.9 0,-2.15391 1.74609,-3.9 3.9,-3.9 2.15391,0 3.9,1.74609 3.9,3.9 z" cx="597" cy="310" r="3.9" fill="#ff6600"/><path id="path21" fill="#ff6600" d="m631.4,253.9c0.2,4.9,7.4,5.5,7.8,0,0.2-3.2-3.9-12.4-3.9-12.4s-4,9.2-3.9,12.4z"/><path id="path23" fill="#ff6600" d="m603.5,326.6c5.4-1.7,3.9-10-2.4-8.8-3.7,0.7-12.8,8.2-12.8,8.2s11.6,1.8,15.2,0.6z"/><path id="path25" fill="#ff6600" d="m599.8,340c2.5-1.8,0.3-5.8-2.7-4.1-1.8,1-5.1,6.3-5.1,6.3s6.2-1,7.8-2.2z"/><path id="path27" fill="#ff6600" d="m586.9,312.9c3.7,0,4.3-5.4,0.3-5.8-2.4-0.3-9.4,2.5-9.4,2.5s6.7,3.3,9.1,3.3z"/><path id="path29" fill="#ff6600" d="m615.7,339.4c2.1-2.8-1.7-6.4-4.4-3.5-1.6,1.7-3.4,8.7-3.4,8.7s6.5-3.3,7.8-5.2z"/><path id="path31" fill="#ff6600" d="m600.3,302.5c6.1,2,10.2-6.7,3.6-9.7-3.9-1.8-17.1-0.8-17.1-0.8s9.4,9.2,13.5,10.5z"/><path id="path33" fill="#ff6600" d="m615.8,278.2c2.4,6.2,11.9,3.8,10-3.4-1.1-4.3-10.4-14.2-10.4-14.2s-1.1,13.5,0.4,17.6z"/><path id="path35" fill="#ff6600" d="m596,278.6c3,2.6,7.4-1.4,4.3-4.7-1.8-1.9-9.6-4.5-9.6-4.5s3.3,7.5,5.3,9.2z"/><path id="path37" fill="#ff6600" d="m666.9,326.6c-5.4-1.7-3.9-10,2.4-8.8,3.7,0.7,12.8,8.2,12.8,8.2s-11.6,1.8-15.2,0.6z"/><path id="path39" fill="#ff6600" d="m670.5,340c-2.5-1.8-0.3-5.8,2.7-4.1,1.8,1,5.1,6.3,5.1,6.3s-6.1-1-7.8-2.2z"/><path id="path41" fill="#ff6600" d="m683.5,312.9c-3.7,0-4.3-5.4-0.3-5.8,2.4-0.3,9.4,2.5,9.4,2.5s-6.7,3.3-9.1,3.3z"/><path id="path43" fill="#ff6600" d="m654.6,339.4c-2.1-2.8,1.7-6.4,4.4-3.5,1.6,1.7,3.4,8.7,3.4,8.7s-6.4-3.3-7.8-5.2z"/><path id="path45" fill="#ff6600" d="m670.1,302.5c-6.1,2-10.2-6.7-3.6-9.7,3.9-1.8,17.1-0.8,17.1-0.8s-9.4,9.2-13.5,10.5z"/><path id="path47" fill="#ff6600" d="m654.5,278.2c-2.4,6.2-11.9,3.8-10-3.4,1.1-4.3,10.4-14.2,10.4-14.2s1.2,13.5-0.4,17.6z"/><path id="path49" fill="#ff6600" d="m674.4,278.6c-3,2.6-7.4-1.4-4.3-4.7,1.8-1.9,9.6-4.5,9.6-4.5s-3.3,7.5-5.3,9.2z"/><g id="g51" fill="#1c3664"><path id="path53" d="m647,346.5c0,1.4-1.1,2.5-2.5,2.5h-19.1c-1.4,0-2.5-1.1-2.5-2.5v-0.1c0-1.4,1.1-2.5,2.5-2.5h19.1c1.4,0.1,2.5,1.2,2.5,2.6z"/><path id="path55" d="m644.1,354h-18.7c-1.4,0-2.5,1.1-2.5,2.5s1.1,2.5,2.5,2.5h1.3c1.1,4,4.3,5.9,8.1,5.9s7-1.9,8.1-5.9h1.2c1.4,0,2.5-1.1,2.5-2.5s-1.1-2.5-2.5-2.5z"/></g></g></svg>
