<svg xmlns="http://www.w3.org/2000/svg" enable-background="new 0 0 1024 768" viewBox="0 0 114.8 123.4"><g transform="translate(-577.8 -241.5)"><path fill="#1c3664" d="M666.9 309.9c-.6-3.4-4.4-2.9-7.3-8.4-1.9-3.6 1.8-8.8-1.3-13.1-2.8-3.8-6.3.3-12.2-2-5.2-2.1-4.7-8.3-10.8-8.3h-.1c-6.1 0-5.5 6.1-10.8 8.3-5.8 2.4-9.4-1.5-12.2 2.2-3.1 4.3.6 9.4-1.3 13-3 5.6-6.8 5-7.3 8.4-.8 4.8 4.7 5.8 6.1 10.1.4 1.1.7 3.7.2 4.8-2.7 6.5 3.4 7.1 3.4 7.1s5.1.1 4.9 6.3c1.8 5.2 7.7 2.2 7.3-1.1-1.5-6.8-12.7-10.4-12.2-23.9-.9-9.6 7.6-21.5 21.8-22.1 14.2.6 22.7 12.6 21.8 22.1.5 13.5-10.7 17.1-12.2 23.9-.4 3.4 5.5 6.3 7.3 1.1-.2-6.2 4.9-6.3 4.9-6.3s6.2-.6 3.4-7.1c-.5-1.1-.2-3.7.2-4.8 1.7-4.4 7.2-5.4 6.4-10.2z"/><circle cy="283.1" cx="606.6" r="4.5" fill="#f60"/><circle cy="267.1" cx="635.3" r="6" fill="#f60"/><circle cy="333.5" cx="665" r="3.2" fill="#f60"/><circle cy="283.1" cx="663.9" r="4.5" fill="#f60"/><circle cy="310" cx="673.5" r="3.9" fill="#f60"/><circle cy="333.5" cx="605.5" r="3.2" fill="#f60"/><circle cy="310" cx="597" r="3.9" fill="#f60"/><path fill="#f60" d="M631.4 253.9c.2 4.9 7.4 5.5 7.8 0 .2-3.2-3.9-12.4-3.9-12.4s-4 9.2-3.9 12.4zm-27.9 72.7c5.4-1.7 3.9-10-2.4-8.8-3.7.7-12.8 8.2-12.8 8.2s11.6 1.8 15.2.6zm-3.7 13.4c2.5-1.8.3-5.8-2.7-4.1-1.8 1-5.1 6.3-5.1 6.3s6.2-1 7.8-2.2zm-12.9-27.1c3.7 0 4.3-5.4.3-5.8-2.4-.3-9.4 2.5-9.4 2.5s6.7 3.3 9.1 3.3zm28.8 26.5c2.1-2.8-1.7-6.4-4.4-3.5-1.6 1.7-3.4 8.7-3.4 8.7s6.5-3.3 7.8-5.2zm-15.4-36.9c6.1 2 10.2-6.7 3.6-9.7-3.9-1.8-17.1-.8-17.1-.8s9.4 9.2 13.5 10.5zm15.5-24.3c2.4 6.2 11.9 3.8 10-3.4-1.1-4.3-10.4-14.2-10.4-14.2s-1.1 13.5.4 17.6zm-19.8.4c3 2.6 7.4-1.4 4.3-4.7-1.8-1.9-9.6-4.5-9.6-4.5s3.3 7.5 5.3 9.2zm70.9 48c-5.4-1.7-3.9-10 2.4-8.8 3.7.7 12.8 8.2 12.8 8.2s-11.6 1.8-15.2.6zm3.6 13.4c-2.5-1.8-.3-5.8 2.7-4.1 1.8 1 5.1 6.3 5.1 6.3s-6.1-1-7.8-2.2zm13-27.1c-3.7 0-4.3-5.4-.3-5.8 2.4-.3 9.4 2.5 9.4 2.5s-6.7 3.3-9.1 3.3zm-28.9 26.5c-2.1-2.8 1.7-6.4 4.4-3.5 1.6 1.7 3.4 8.7 3.4 8.7s-6.4-3.3-7.8-5.2zm15.5-36.9c-6.1 2-10.2-6.7-3.6-9.7 3.9-1.8 17.1-.8 17.1-.8s-9.4 9.2-13.5 10.5zm-15.6-24.3c-2.4 6.2-11.9 3.8-10-3.4 1.1-4.3 10.4-14.2 10.4-14.2s1.2 13.5-.4 17.6zm19.9.4c-3 2.6-7.4-1.4-4.3-4.7 1.8-1.9 9.6-4.5 9.6-4.5s-3.3 7.5-5.3 9.2z"/><path d="M647 346.5c0 1.4-1.1 2.5-2.5 2.5h-19.1c-1.4 0-2.5-1.1-2.5-2.5v-.1c0-1.4 1.1-2.5 2.5-2.5h19.1c1.4.1 2.5 1.2 2.5 2.6zm-2.9 7.5h-18.7c-1.4 0-2.5 1.1-2.5 2.5s1.1 2.5 2.5 2.5h1.3c1.1 4 4.3 5.9 8.1 5.9s7-1.9 8.1-5.9h1.2c1.4 0 2.5-1.1 2.5-2.5s-1.1-2.5-2.5-2.5z" fill="#1c3664"/></g></svg>