<?xml version="1.0" encoding="UTF-8" standalone="no"?>
<!-- Generator: Adobe Illustrator 17.1.0, SVG Export Plug-In . SVG Version: 6.00 Build 0)  -->
<svg id="Layer_1" xmlns:rdf="http://www.w3.org/1999/02/22-rdf-syntax-ns#" xmlns="http://www.w3.org/2000/svg" enable-background="new 0 0 1024 768" xml:space="preserve" viewBox="0 0 88.6 79.6" height="100%" width="100%" version="1.1" y="0px" x="0px" xmlns:cc="http://creativecommons.org/ns#" xmlns:dc="http://purl.org/dc/elements/1.1/"><metadata id="metadata15"><rdf:RDF><cc:Work rdf:about=""><dc:format>image/svg+xml</dc:format><dc:type rdf:resource="http://purl.org/dc/dcmitype/StillImage"/><dc:title/></cc:Work></rdf:RDF></metadata><g id="g3" transform="translate(-609.4,-277.1)"><g id="g5"><path id="path7" fill="#1c3664" d="m679.6,320.6c-1.8,15.3-14.8,27.1-30.5,27.1-17,0-30.8-13.8-30.8-30.8s13.8-30.8,30.8-30.8c7.2,0,13.7,2.4,19,6.5l6.4-6.4c-6.9-5.7-15.7-9.1-25.3-9.1-22,0-39.8,17.8-39.8,39.8s17.8,39.8,39.8,39.8,39.8-17.8,39.8-39.8c0-1.8-0.1-3.5-0.4-5.2l-9,8.9z"/></g></g><path id="path9" fill="#ff6600" d="m86.7,17c1.2-1.2,1.9-2.8,1.9-4.6,0-3.6-2.9-6.5-6.5-6.5-2.4,0-4,1.3-5.7,3.4l-35.3,35.7-10.3-15.6c-1.1-2-3.3-3.4-5.7-3.4-3.6,0-6.5,2.9-6.5,6.5,0,1.3,0.4,2.5,1.1,3.6l14.5,22.1c1,2.2,3.3,3.8,5.9,3.8,2.2,0,4.1-1.1,5.3-2.7l41.3-42.3z"/></svg>
