<svg xmlns="http://www.w3.org/2000/svg" enable-background="new 0 0 1024 768" viewBox="0 0 88.6 79.6"><path fill="#1c3664" d="M70.2 43.5c-1.8 15.3-14.8 27.1-30.5 27.1-17 0-30.8-13.8-30.8-30.8S22.7 9 39.7 9c7.2 0 13.7 2.4 19 6.5l6.4-6.4C58.2 3.4 49.4 0 39.8 0 17.8 0 0 17.8 0 39.8s17.8 39.8 39.8 39.8 39.8-17.8 39.8-39.8c0-1.8-.1-3.5-.4-5.2l-9 8.9z"/><path fill="#f60" d="M86.7 17c1.2-1.2 1.9-2.8 1.9-4.6 0-3.6-2.9-6.5-6.5-6.5-2.4 0-4 1.3-5.7 3.4L41.1 45 30.8 29.4c-1.1-2-3.3-3.4-5.7-3.4-3.6 0-6.5 2.9-6.5 6.5 0 1.3.4 2.5 1.1 3.6l14.5 22.1c1 2.2 3.3 3.8 5.9 3.8 2.2 0 4.1-1.1 5.3-2.7L86.7 17z"/></svg>