<svg xmlns="http://www.w3.org/2000/svg" enable-background="new 0 0 1024 768" viewBox="0 0 133.5595 106.48437"><path fill="#f60" d="M57.38 36.284c-31.5 0-57 15.7-57 35.1s25.5 35.1 57 35.1 57-15.7 57-35.1-25.5-35.1-57-35.1zM442.5 337.5c-5.4 0-9.8-4.4-9.8-9.8s4.4-9.8 9.8-9.8 9.8 4.4 9.8 9.8-4.4 9.8-9.8 9.8zm27.3 0c-5.4 0-9.8-4.4-9.8-9.8s4.4-9.8 9.8-9.8 9.8 4.4 9.8 9.8c-.1 5.4-4.4 9.8-9.8 9.8zm27.2 0c-5.4 0-9.8-4.4-9.8-9.8s4.4-9.8 9.8-9.8 9.8 4.4 9.8 9.8-4.4 9.8-9.8 9.8z"/><path d="M122.38 48.484c0-2.2-1.8-3.9-4-3.9s-4 1.7-4 3.9v11.1c0 1.1 1.4 2.5 1.9 3.5h6.1v-14.6zm-8 45.7c0 2.2 1.8 3.9 4 3.9s4-1.7 4-3.9v-14.1h-5.1c-.7 2-2.9 3.9-2.9 5.9v8.2zM50.68 24.084h-4.3v-13.7c0-6.1-7.6-11.1-15.1-10.3-3.2.3-5.9 6.5-.5 8 8.4 0 7.6 4.2 7.6 4.2v11.8h-3.1c-4 0-6.9 2.3-6.9 6.3v8.2c9-3 18.3-4.7 29-4.7v-3.6c0-3.9-2.7-6.2-6.7-6.2zM436.7 264.8c-1 0-1.8-1.1-1.8-2.4s.8-2.4 1.8-2.4 1.8 1.1 1.8 2.4-.8 2.4-1.8 2.4zM57.38 33.984z" fill="#1c3664"/><path d="M3.18 30.884c4.3 0 9-8.6 13.2-8.6 4 0 8.7 8.5 12.5 8.6 5.1.1 19.2-.3 25.6.1 5.2.3 8.7-8.5 12.4-8.6 7.9-.3 8.1 8.6 12.2 8.6 4.3 0 9-8.6 13.2-8.6 4 0 8.7 8.5 12.5 8.6 5.1.1 8.7-8.5 12.5-8.5 4.1 0 6.7 8.6 13.1 8.6" stroke="#1c3664" stroke-miterlimit="10" stroke-width="6.359" fill="none"/><path fill="#1c3664" d="M124.18 67.084h-6.8c.6 1 .6 8 0 9h6.7c2.2 0 3.9-2 3.9-4.5s-1.6-4.5-3.8-4.5z"/></svg>