<?xml version="1.0" encoding="UTF-8" standalone="no"?>
<!-- Generator: Adobe Illustrator 17.1.0, SVG Export Plug-In . SVG Version: 6.00 Build 0)  -->
<svg id="Layer_1" xmlns:rdf="http://www.w3.org/1999/02/22-rdf-syntax-ns#" xmlns="http://www.w3.org/2000/svg" version="1.1" xml:space="preserve" viewBox="0 0 100 100" height="100%" width="100%" enable-background="new 0 0 1024 768" y="0px" x="0px" xmlns:cc="http://creativecommons.org/ns#" xmlns:dc="http://purl.org/dc/elements/1.1/"><metadata id="metadata29"><rdf:RDF><cc:Work rdf:about=""><dc:format>image/svg+xml</dc:format><dc:type rdf:resource="http://purl.org/dc/dcmitype/StillImage"/><dc:title/></cc:Work></rdf:RDF></metadata><g id="g3" transform="matrix(0.74873,0,0,0.74873,-302.95132,-182.97319)"><path id="path5" fill="#ff6600" d="m462,294.2c-31.5,0-57,15.7-57,35.1s25.5,35.1,57,35.1,57-15.7,57-35.1-25.5-35.1-57-35.1zm-19.5,43.3c-5.4,0-9.8-4.4-9.8-9.8s4.4-9.8,9.8-9.8,9.8,4.4,9.8,9.8-4.4,9.8-9.8,9.8zm27.3,0c-5.4,0-9.8-4.4-9.8-9.8s4.4-9.8,9.8-9.8,9.8,4.4,9.8,9.8c-0.1,5.4-4.4,9.8-9.8,9.8zm27.2,0c-5.4,0-9.8-4.4-9.8-9.8s4.4-9.8,9.8-9.8,9.8,4.4,9.8,9.8-4.4,9.8-9.8,9.8z"/><g id="g7" fill="#1c3664"><path id="path9" d="m527,306.4c0-2.2-1.8-3.9-4-3.9s-4,1.7-4,3.9v11.1c0,1.1,1.4,2.5,1.9,3.5h6.1v-14.6z"/><path id="path11" d="m519,352.1c0,2.2,1.8,3.9,4,3.9s4-1.7,4-3.9v-14.1h-5.1c-0.7,2-2.9,3.9-2.9,5.9v8.2z"/></g><g id="g13" fill="#1c3664"><path id="path15" d="M455.3,282h-4.3v-13.7c0-6.1-7.6-11.1-15.1-10.3-3.2,0.3-5.9,6.5-0.5,8,8.4,0,7.6,4.2,7.6,4.2v11.8h-3.1c-4,0-6.9,2.3-6.9,6.3v8.2c9-3,18.3-4.7,29-4.7v-3.6c0-3.9-2.7-6.2-6.7-6.2zm-18.6-17.2c-1,0-1.8-1.1-1.8-2.4s0.8-2.4,1.8-2.4,1.8,1.1,1.8,2.4-0.8,2.4-1.8,2.4z"/><path id="path17" d="m462,291.9,0,0z"/></g><path id="path19" d="m407.8,288.8c4.3,0,9-8.6,13.2-8.6,4,0,8.7,8.5,12.5,8.6,5.1,0.1,19.2-0.3,25.6,0.1,5.2,0.3,8.7-8.5,12.4-8.6,7.9-0.3,8.1,8.6,12.2,8.6,4.3,0,9-8.6,13.2-8.6,4,0,8.7,8.5,12.5,8.6,5.1,0.1,8.7-8.5,12.5-8.5,4.1,0,6.7,8.6,13.1,8.6" stroke="#1c3664" stroke-miterlimit="10" stroke-width="6.35949993" fill="none"/><g id="g21"><path id="path23" fill="#1c3664" d="M528.8,325h-6.8c0.6,1,0.6,8,0,9h6.7c2.2,0,3.9-2,3.9-4.5s-1.6-4.5-3.8-4.5z"/></g></g></svg>
